<svg width="25" height="24" viewBox="0 0 25 24" fill="none" xmlns="http://www.w3.org/2000/svg">
<path d="M21.34 4.60987C20.8292 4.09888 20.2228 3.69352 19.5554 3.41696C18.8879 3.14039 18.1725 2.99805 17.45 2.99805C16.7275 2.99805 16.0121 3.14039 15.3446 3.41696C14.6772 3.69352 14.0708 4.09888 13.56 4.60987L12.5 5.66987L11.44 4.60987C10.4083 3.57818 9.00903 2.99858 7.55 2.99858C6.09096 2.99858 4.69169 3.57818 3.66 4.60987C2.6283 5.64156 2.04871 7.04084 2.04871 8.49987C2.04871 9.95891 2.6283 11.3582 3.66 12.3899L4.72 13.4499L12.5 21.2299L20.28 13.4499L21.34 12.3899C21.851 11.8791 22.2563 11.2727 22.5329 10.6052C22.8095 9.93777 22.9518 9.22236 22.9518 8.49987C22.9518 7.77738 22.8095 7.06198 22.5329 6.39452C22.2563 5.72706 21.851 5.12063 21.34 4.60987Z" stroke="#676767" stroke-width="1.5" stroke-linecap="round" stroke-linejoin="round"/>
</svg>
